HIERARCHY
ROOT hip
{
  OFFSET 0 0 0
  CHANNELS 6 Xposition Yposition Zposition Zrotation Yrotation Xrotation
  JOINT abdomen
  {
    OFFSET 0 20.6881 -0.73152
    CHANNELS 3 Zrotation Xrotation Yrotation
    JOINT chest
    {
      OFFSET 0 11.7043 -0.48768
      CHANNELS 3 Zrotation Xrotation Yrotation
      JOINT neck
      {
        OFFSET 0 22.1894 -2.19456
        CHANNELS 3 Zrotation Xrotation Yrotation
        JOINT head
        {
          OFFSET -0.24384 7.07133 1.2192
          CHANNELS 3 Zrotation Xrotation Yrotation
          JOINT leftEye
          {
            OFFSET 4.14528 8.04674 8.04672
            CHANNELS 3 Zrotation Xrotation Yrotation
            End Site
            {
              OFFSET 1 0 0
            }
          }
          JOINT rightEye
          {
            OFFSET -3.6576 8.04674 8.04672
            CHANNELS 3 Zrotation Xrotation Yrotation
            End Site
            {
              OFFSET 1 0 0
            }
          }
        }
      }
      JOINT rCollar
      {
        OFFSET -2.68224 19.2634 -4.8768
        CHANNELS 3 Zrotation Xrotation Yrotation
        JOINT rShldr
        {
          OFFSET -8.77824 -1.95073 1.46304
          CHANNELS 3 Zrotation Xrotation Yrotation
          JOINT rForeArm
          {
            OFFSET -28.1742 -1.7115 0.48768
            CHANNELS 3 Zrotation Xrotation Yrotation
            JOINT rHand
            {
              OFFSET -22.5879 0.773209 7.07136
              CHANNELS 3 Zrotation Xrotation Yrotation
              JOINT rThumb1
              {
                OFFSET -1.2192 -0.487915 3.41376
                CHANNELS 3 Zrotation Xrotation Yrotation
                JOINT rThumb2
                {
                  OFFSET -3.37035 -0.52449 3.41376
                  CHANNELS 3 Zrotation Xrotation Yrotation
                  End Site
                  {
                    OFFSET -1.78271 -1.18214 1.43049
                  }
                }
              }
              JOINT rIndex1
              {
                OFFSET -7.75947 0.938293 5.60832
                CHANNELS 3 Zrotation Xrotation Yrotation
                JOINT rIndex2
                {
                  OFFSET -2.54057 -0.884171 1.56538
                  CHANNELS 3 Zrotation Xrotation Yrotation
                  End Site
                  {
                    OFFSET -1.62519 -0.234802 1.16502
                  }
                }
              }
              JOINT rMid1
              {
                OFFSET -8.24714 1.18213 3.41376
                CHANNELS 3 Zrotation Xrotation Yrotation
                JOINT rMid2
                {
                  OFFSET -3.10165 -0.590103 1.0647
                  CHANNELS 3 Zrotation Xrotation Yrotation
                  End Site
                  {
                    OFFSET -2.48547 -0.328903 0.83742
                  }
                }
              }
              JOINT rRing1
              {
                OFFSET -8.82822 0.546677 1.51678
                CHANNELS 3 Zrotation Xrotation Yrotation
                JOINT rRing2
                {
                  OFFSET -2.60934 -0.819778 -0.0198488
                  CHANNELS 3 Zrotation Xrotation Yrotation
                  End Site
                  {
                    OFFSET -2.33842 -0.294052 0.168128
                  }
                }
              }
              JOINT rPinky1
              {
                OFFSET -8.27202 -0.0477905 -0.4584
                CHANNELS 3 Zrotation Xrotation Yrotation
                JOINT rPinky2
                {
                  OFFSET -1.82734 -0.647385 -0.700984
                  CHANNELS 3 Zrotation Xrotation Yrotation
                  End Site
                  {
                    OFFSET -1.69225 -0.51767 -0.607171
                  }
                }
              }
            }
          }
        }
      }
      JOINT lCollar
      {
        OFFSET 2.68224 19.2634 -4.8768
        CHANNELS 3 Zrotation Xrotation Yrotation
        JOINT lShldr
        {
          OFFSET 8.77824 -1.95073 1.46304
          CHANNELS 3 Zrotation Xrotation Yrotation
          JOINT lForeArm
          {
            OFFSET 28.1742 -1.7115 0.48768
            CHANNELS 3 Zrotation Xrotation Yrotation
            JOINT lHand
            {
              OFFSET 22.5879 0.773209 7.07136
              CHANNELS 3 Zrotation Xrotation Yrotation
              JOINT lThumb1
              {
                OFFSET 1.2192 -0.487915 3.41376
                CHANNELS 3 Zrotation Xrotation Yrotation
                JOINT lThumb2
                {
                  OFFSET 3.37035 -0.52449 3.41376
                  CHANNELS 3 Zrotation Xrotation Yrotation
                  End Site
                  {
                    OFFSET 1.78271 -1.18214 1.43049
                  }
                }
              }
              JOINT lIndex1
              {
                OFFSET 7.75947 0.938293 5.60832
                CHANNELS 3 Zrotation Xrotation Yrotation
                JOINT lIndex2
                {
                  OFFSET 2.54057 -0.884171 1.56538
                  CHANNELS 3 Zrotation Xrotation Yrotation
                  End Site
                  {
                    OFFSET 1.62519 -0.234802 1.16502
                  }
                }
              }
              JOINT lMid1
              {
                OFFSET 8.24714 1.18213 3.41376
                CHANNELS 3 Zrotation Xrotation Yrotation
                JOINT lMid2
                {
                  OFFSET 3.10165 -0.590103 1.0647
                  CHANNELS 3 Zrotation Xrotation Yrotation
                  End Site
                  {
                    OFFSET 2.48547 -0.328903 0.83742
                  }
                }
              }
              JOINT lRing1
              {
                OFFSET 8.82822 0.546677 1.51678
                CHANNELS 3 Zrotation Xrotation Yrotation
                JOINT lRing2
                {
                  OFFSET 2.60934 -0.819778 -0.0198488
                  CHANNELS 3 Zrotation Xrotation Yrotation
                  End Site
                  {
                    OFFSET 2.33842 -0.294052 0.168128
                  }
                }
              }
              JOINT lPinky1
              {
                OFFSET 8.27202 -0.0477905 -0.4584
                CHANNELS 3 Zrotation Xrotation Yrotation
                JOINT lPinky2
                {
                  OFFSET 1.82734 -0.647385 -0.700984
                  CHANNELS 3 Zrotation Xrotation Yrotation
                  End Site
                  {
                    OFFSET 1.69225 -0.51767 -0.607171
                  }
                }
              }
            }
          }
        }
      }
    }
  }
  JOINT rButtock
  {
    OFFSET -8.77824 4.35084 1.2192
    CHANNELS 3 Zrotation Xrotation Yrotation
    JOINT rThigh
    {
      OFFSET 0 -1.70687 -2.19456
      CHANNELS 3 Zrotation Xrotation Yrotation
      JOINT rShin
      {
        OFFSET 0 -36.8199 0.73152
        CHANNELS 3 Zrotation Xrotation Yrotation
        JOINT rFoot
        {
          OFFSET 0.73152 -45.1104 -5.12064
          CHANNELS 3 Zrotation Xrotation Yrotation
          End Site
          {
            OFFSET -1.1221 -3.69964 12.103
          }
        }
      }
    }
  }
  JOINT lButtock
  {
    OFFSET 8.77824 4.35084 1.2192
    CHANNELS 3 Zrotation Xrotation Yrotation
    JOINT lThigh
    {
      OFFSET 0 -1.70687 -2.19456
      CHANNELS 3 Zrotation Xrotation Yrotation
      JOINT lShin
      {
        OFFSET 0 -36.8199 0.73152
        CHANNELS 3 Zrotation Xrotation Yrotation
        JOINT lFoot
        {
          OFFSET -0.73152 -45.1104 -5.12064
          CHANNELS 3 Zrotation Xrotation Yrotation
          End Site
          {
            OFFSET 1.1221 -3.69964 12.103
          }
        }
      }
    }
  }
}
MOTION
Frames:	6
Frame Time:	0.03333
-0.0022000000171829015 71.40259742736816 0.25599999353289604 0.5967655181884766 17.40898895263672 2.821903705596924 -6.932761192321777 8.678995132446289 0.4705063998699188 3.504211664199829 -7.748300552368164 0.2175416648387909 -7.187254905700684 16.71888542175293 -11.073202133178711 12.792295455932617 -16.169395446777344 -19.657400131225586 -0.0 0.0 -0.0 -0.0 0.0 -0.0 -0.0 0.0 -0.0 58.23409652709961 34.070804595947266 0.8034999370574951 -24.87249755859375 -20.824790954589844 52.501895904541016 -0.000270664895651862 -0.47271230816841125 -0.06561227887868881 0.0 0.0 -0.0 0.0 0.0 -0.0 0.0 0.0 -0.0 7.730902194976807 5.47491455078125 0.4173222780227661 0.0 0.0 -0.0 2.905566453933716 0.9650754332542419 0.10300818830728531 0.0 0.0 -0.0 10.278596878051758 0.7318810820579529 0.026273518800735474 0.0 0.0 -0.0 2.221662998199463 -0.7334509491920471 -0.20832103490829468 -0.0 0.0 -0.0 -54.72380065917969 52.65809631347656 -21.143098831176758 28.40450668334961 -36.92499923706055 -78.56790161132812 1.0512992143630981 -27.79098892211914 4.247708320617676 -0.0 -0.0 -0.0 -0.0 -0.0 -0.0 -0.0 -0.0 -0.0 -7.730902194976807 5.47491455078125 -0.4173222780227661 -0.0 -0.0 -0.0 -2.905566453933716 0.9650754332542419 -0.10300818830728531 -0.0 -0.0 -0.0 -10.278596878051758 0.7318810820579529 -0.026273518800735474 -0.0 -0.0 -0.0 -2.221662998199463 -0.7334509491920471 0.20832103490829468 -0.0 0.0 -0.0 -28.167295455932617 -55.72077941894531 -26.88089942932129 -1.2764983177185059 62.99551010131836 1.766905665397644 1.4076510667800903 -3.3946709632873535 13.53689193725586 0.0 0.0 0.0 8.720532417297363 4.0787434577941895 0.04344557970762253 0.1096663773059845 41.444305419921875 -2.0230982303619385 15.040693283081055 -15.823896408081055 32.86090087890625
0.028100000781705603 71.23579978942871 0.3919999930076301 0.3663162291049957 17.579893112182617 2.9271135330200195 -7.136192321777344 8.45026683807373 0.22942546010017395 3.556755542755127 -7.772275924682617 0.16485795378684998 -7.484246253967285 16.55609703063965 -11.393006324768066 13.171587944030762 -15.399398803710938 -20.28080177307129 -0.0 0.0 -0.0 -0.0 0.0 -0.0 -0.0 0.0 -0.0 58.26669692993164 33.917396545410156 0.9144574403762817 -24.680892944335938 -20.427501678466797 51.84020233154297 -5.410567973740399e-05 -0.22161531448364258 -0.027976609766483307 0.0 0.0 0.0 0.0 0.0 0.0 0.0 0.0 0.0 7.730902194976807 5.47491455078125 0.4173222780227661 0.0 0.0 0.0 2.905566453933716 0.9650754332542419 0.10300818830728531 0.0 0.0 0.0 10.278596878051758 0.7318810820579529 0.026273518800735474 0.0 0.0 0.0 2.221662998199463 -0.7334509491920471 -0.20832103490829468 -0.0 0.0 -0.0 -54.924903869628906 52.35771179199219 -21.124696731567383 28.417993545532227 -36.5908088684082 -78.0022964477539 1.031126856803894 -27.362878799438477 4.174899101257324 0.0 0.0 0.0 0.0 0.0 0.0 0.0 0.0 0.0 -7.730902194976807 5.47491455078125 -0.4173222780227661 0.0 0.0 0.0 -2.905566453933716 0.9650754332542419 -0.10300818830728531 0.0 0.0 0.0 -10.278596878051758 0.7318810820579529 -0.026273518800735474 0.0 0.0 0.0 -2.221662998199463 -0.7334509491920471 0.20832103490829468 -0.0 0.0 -0.0 -28.58329963684082 -55.98769760131836 -27.271100997924805 -1.32404625415802 63.584598541259766 1.8252171277999878 1.4543342590332031 -3.857919931411743 13.178009033203125 0.0 0.0 0.0 8.667154312133789 4.623255252838135 0.004919014405459166 0.08596824109554291 40.53739547729492 -2.0323362350463867 15.54000473022461 -16.298398971557617 33.47789764404297
0.10710000278777443 71.05820178985596 0.5199999897740781 0.30128365755081177 17.82900619506836 3.157984972000122 -7.274938583374023 8.305537223815918 0.010848059318959713 3.614495277404785 -7.830656051635742 0.10859560966491699 -7.78591251373291 16.37129020690918 -11.728507041931152 13.516392707824707 -14.740010261535645 -20.9313907623291 -0.0 0.0 -0.0 -0.0 0.0 -0.0 -0.0 0.0 -0.0 58.40729904174805 33.650596618652344 0.9042743444442749 -24.468402862548828 -19.999191284179688 51.12660598754883 -3.0640985642094165e-05 0.17749077081680298 0.01978241465985775 0.0 0.0 0.0 0.0 0.0 0.0 0.0 0.0 0.0 7.730902194976807 5.47491455078125 0.4173222780227661 0.0 0.0 0.0 2.905566453933716 0.9650754332542419 0.10300818830728531 0.0 0.0 0.0 10.278596878051758 0.7318810820579529 0.026273518800735474 0.0 0.0 0.0 2.221662998199463 -0.7334509491920471 -0.20832103490829468 -0.0 0.0 -0.0 -55.09330749511719 52.126708984375 -21.14739418029785 28.427297592163086 -36.24189758300781 -77.41590118408203 1.015474796295166 -27.35910415649414 4.170382022857666 0.0 0.0 0.0 0.0 0.0 0.0 0.0 0.0 0.0 -7.730902194976807 5.47491455078125 -0.4173222780227661 0.0 0.0 0.0 -2.905566453933716 0.9650754332542419 -0.10300818830728531 0.0 0.0 0.0 -10.278596878051758 0.7318810820579529 -0.026273518800735474 0.0 0.0 0.0 -2.221662998199463 -0.7334509491920471 0.20832103490829468 -0.0 0.0 -0.0 -28.963703155517578 -56.29579544067383 -27.61290168762207 -1.3660258054733276 64.09878540039062 1.8721171617507935 1.4794065952301025 -4.364344596862793 12.69079875946045 0.0 0.0 0.0 8.596715927124023 4.9184770584106445 -0.08804408460855484 0.06846578419208527 39.881996154785156 -2.0444607734680176 16.109487533569336 -16.766002655029297 34.16459655761719
0.1486000015574973 70.87270021438599 0.6079999904613942 0.382845401763916 18.097793579101562 3.3602190017700195 -7.333073139190674 8.15560531616211 -0.1960647702217102 3.6151394844055176 -7.830850124359131 0.05112430453300476 -8.012112617492676 16.287796020507812 -12.049010276794434 13.781195640563965 -14.266603469848633 -21.55569076538086 -0.0 0.0 -0.0 -0.0 0.0 -0.0 -0.0 -0.0 -0.0 58.63909149169922 33.41670608520508 0.8189070820808411 -24.250102996826172 -19.57189178466797 50.410606384277344 -0.00016855838475748897 0.36903542280197144 0.05233997106552124 0.0 0.0 0.0 0.0 0.0 0.0 0.0 0.0 0.0 7.730902194976807 5.47491455078125 0.4173222780227661 0.0 0.0 0.0 2.905566453933716 0.9650754332542419 0.10300818830728531 0.0 0.0 0.0 10.278596878051758 0.7318810820579529 0.026273518800735474 0.0 0.0 0.0 2.221662998199463 -0.7334509491920471 -0.20832103490829468 -0.0 -0.0 -0.0 -55.309303283691406 51.90129470825195 -21.065093994140625 28.432701110839844 -35.87310028076172 -76.79669952392578 1.0112839937210083 -27.308107376098633 4.161236763000488 0.0 0.0 0.0 0.0 0.0 0.0 0.0 0.0 0.0 -7.730902194976807 5.47491455078125 -0.4173222780227661 0.0 0.0 0.0 -2.905566453933716 0.9650754332542419 -0.10300818830728531 0.0 0.0 0.0 -10.278596878051758 0.7318810820579529 -0.026273518800735474 0.0 0.0 0.0 -2.221662998199463 -0.7334509491920471 0.20832103490829468 -0.0 0.0 -0.0 -29.408010482788086 -56.569400787353516 -28.049013137817383 -1.4079440832138062 64.57939147949219 1.9175187349319458 1.535239815711975 -4.837967872619629 12.422097206115723 0.0 0.0 0.0 8.55179214477539 5.123621463775635 -0.24222084879875183 0.05462251603603363 39.342201232910156 -2.0549004077911377 16.632490158081055 -17.127893447875977 34.83149337768555
0.24500000217813067 70.67829966545105 0.6769999919924885 0.31580850481987 18.28350257873535 3.5458240509033203 -7.310598850250244 8.000513076782227 -0.3905095160007477 3.5588316917419434 -7.772937774658203 -0.007108521182090044 -8.161054611206055 16.305299758911133 -12.355098724365234 13.959199905395508 -13.976799964904785 -22.153606414794922 -0.0 0.0 -0.0 -0.0 0.0 -0.0 -0.0 -0.0 -0.0 58.96119689941406 33.215599060058594 0.6588318347930908 -24.02601432800293 -19.145689010620117 49.691802978515625 -0.00015011172217782587 0.3549819588661194 0.04845733940601349 0.0 0.0 0.0 0.0 0.0 0.0 0.0 0.0 0.0 7.730902194976807 5.47491455078125 0.4173222780227661 0.0 0.0 0.0 2.905566453933716 0.9650754332542419 0.10300818830728531 0.0 0.0 0.0 10.278596878051758 0.7318810820579529 0.026273518800735474 0.0 0.0 0.0 2.221662998199463 -0.7334509491920471 -0.20832103490829468 -0.0 -0.0 -0.0 -55.570892333984375 51.680999755859375 -20.879302978515625 28.43260383605957 -35.48259353637695 -76.14700317382812 1.0032880306243896 -27.210201263427734 4.14378023147583 0.0 0.0 0.0 0.0 0.0 0.0 0.0 0.0 0.0 -7.730902194976807 5.47491455078125 -0.4173222780227661 0.0 0.0 0.0 -2.905566453933716 0.9650754332542419 -0.10300818830728531 0.0 0.0 0.0 -10.278596878051758 0.7318810820579529 -0.026273518800735474 0.0 0.0 0.0 -2.221662998199463 -0.7334509491920471 0.20832103490829468 -0.0 0.0 -0.0 -29.91758918762207 -56.80720901489258 -28.57978630065918 -1.4487580060958862 65.02618408203125 1.9605075120925903 1.6272425651550293 -5.277796745300293 12.37218952178955 0.0 0.0 0.0 8.532137870788574 5.23898458480835 -0.453868567943573 0.04360917583107948 38.917911529541016 -2.0632641315460205 17.10500717163086 -17.386192321777344 35.47621154785156
0.26600000201142393 70.48630118370056 0.7739999913610518 0.4640786051750183 18.488292694091797 3.7555339336395264 -7.26019811630249 7.9249701499938965 -0.5064598321914673 3.483198642730713 -7.769853115081787 -0.043223317712545395 -8.292404174804688 16.355289459228516 -12.65499210357666 14.126601219177246 -13.658090591430664 -22.745996475219727 -0.0 0.0 -0.0 -0.0 0.0 -0.0 -0.0 -0.0 -0.0 59.4033088684082 33.05210494995117 0.3549736738204956 -23.793996810913086 -18.717195510864258 48.96509552001953 -9.365187725052238e-05 0.27124205231666565 0.039565011858940125 0.0 0.0 0.0 0.0 0.0 0.0 0.0 0.0 0.0 7.730902194976807 5.47491455078125 0.4173222780227661 0.0 0.0 0.0 2.905566453933716 0.9650754332542419 0.10300818830728531 0.0 0.0 0.0 10.278596878051758 0.7318810820579529 0.026273518800735474 0.0 0.0 0.0 2.221662998199463 -0.7334509491920471 -0.20832103490829468 -0.0 -0.0 -0.0 -55.88999557495117 51.535396575927734 -20.613601684570312 28.427091598510742 -35.064212799072266 -75.45089721679688 0.9944542050361633 -27.101512908935547 4.124415874481201 0.0 0.0 0.0 0.0 0.0 0.0 0.0 0.0 0.0 -7.730902194976807 5.47491455078125 -0.4173222780227661 0.0 0.0 0.0 -2.905566453933716 0.9650754332542419 -0.10300818830728531 0.0 0.0 0.0 -10.278596878051758 0.7318810820579529 -0.026273518800735474 0.0 0.0 0.0 -2.221662998199463 -0.7334509491920471 0.20832103490829468 -0.0 0.0 -0.0 -30.434314727783203 -57.015098571777344 -29.180221557617188 -1.488397240638733 65.46749877929688 2.004302740097046 1.7015076875686646 -5.584958076477051 12.375398635864258 0.0 0.0 0.0 8.556487083435059 5.397017478942871 -0.6188536286354065 0.03361726552248001 38.53579330444336 -2.0736780166625977 17.561498641967773 -17.665802001953125 36.04549789428711
